<svg width="24" height="24" version="1.1" xmlns="http://www.w3.org/2000/svg" xmlns:xlink="http://www.w3.org/1999/xlink" viewBox="0 0 22.0195 16.582">
 <g>
  <rect height="16.582" opacity="0" width="22.0195" x="0" y="0"/>
  <path d="M5.01562 16.582C7.80469 16.582 10.043 13.2539 10.043 8.28516C10.043 3.32812 7.80469 0 5.01562 0C2.39062 0 0.269531 2.90625 0 7.34766C0.445312 6.50391 1.28906 6 2.39062 6C4.03125 6 5.12109 7.14844 5.12109 8.84766C5.12109 10.5703 4.03125 11.707 2.39062 11.707C1.40625 11.707 0.621094 11.3086 0.152344 10.6172C0.726562 14.2734 2.67188 16.582 5.01562 16.582ZM1.62891 8.48438C1.96875 8.55469 2.28516 8.23828 2.36719 7.81641C2.44922 7.39453 2.25 6.99609 1.89844 6.92578C1.57031 6.86719 1.20703 7.17188 1.13672 7.59375C1.06641 8.02734 1.28906 8.42578 1.62891 8.48438ZM16.6289 16.582C19.4297 16.582 21.668 13.2539 21.668 8.28516C21.668 3.32812 19.4297 0 16.6289 0C14.0156 0 11.8945 2.90625 11.6133 7.34766C12.0703 6.50391 12.9023 6 14.0039 6C15.6562 6 16.7344 7.14844 16.7344 8.84766C16.7344 10.5703 15.6562 11.707 14.0039 11.707C13.0195 11.707 12.2461 11.3086 11.7656 10.6172C12.3516 14.2734 14.2969 16.582 16.6289 16.582ZM13.2422 8.48438C13.582 8.55469 13.9102 8.23828 13.9922 7.81641C14.0742 7.39453 13.8633 6.98438 13.5117 6.92578C13.1836 6.86719 12.832 7.17188 12.7617 7.59375C12.6797 8.02734 12.9023 8.41406 13.2422 8.48438Z" fill="currentColor" fill-opacity="0.85"/>
 </g>
</svg>
