<svg version="1.1" xmlns="http://www.w3.org/2000/svg" xmlns:xlink="http://www.w3.org/1999/xlink" viewBox="0 0 22.7344 19.5352">
 <g>
  <rect height="19.5352" opacity="0" width="22.7344" x="0" y="0"/>
  <path d="M8.50781 18.4219L13.875 18.4219L13.875 12.5273C13.875 12.082 13.5938 11.7891 13.1367 11.7891L9.24609 11.7891C8.80078 11.7891 8.50781 12.082 8.50781 12.5273ZM0.914062 10.1133C1.20703 10.1133 1.45312 9.94922 1.66406 9.77344L10.8867 2.02734C10.9805 1.94531 11.0977 1.91016 11.1914 1.91016C11.2852 1.91016 11.3906 1.94531 11.4844 2.02734L20.7188 9.77344C20.9297 9.94922 21.1758 10.1133 21.4688 10.1133C22.043 10.1133 22.3828 9.70312 22.3828 9.26953C22.3828 9.03516 22.2773 8.77734 22.0547 8.58984L12.3633 0.457031C11.9883 0.152344 11.5898 0 11.1914 0C10.793 0 10.3828 0.152344 10.0195 0.457031L0.328125 8.58984C0.105469 8.77734 0 9.03516 0 9.26953C0 9.70312 0.339844 10.1133 0.914062 10.1133ZM17.0625 4.82812L19.5938 6.96094L19.5938 2.71875C19.5938 2.27344 19.3008 1.99219 18.8555 1.99219L17.8008 1.99219C17.3672 1.99219 17.0625 2.27344 17.0625 2.71875ZM4.95703 19.5234L17.4141 19.5234C18.7852 19.5234 19.5938 18.7383 19.5938 17.4023L19.5938 7.20703L17.8945 6.08203L17.8945 16.9688C17.8945 17.5195 17.5898 17.8359 17.0625 17.8359L5.32031 17.8359C4.79297 17.8359 4.47656 17.5195 4.47656 16.9688L4.47656 6.08203L2.78906 7.20703L2.78906 17.4023C2.78906 18.7383 3.59766 19.5234 4.95703 19.5234Z" fill="currentColor" fill-opacity="0.85"/>
 </g>
</svg>
