<svg width="24" height="24" version="1.1" xmlns="http://www.w3.org/2000/svg" xmlns:xlink="http://www.w3.org/1999/xlink" viewBox="0 0 27.7216 29.8063">
 <g>
  <rect height="29.8063" opacity="0" width="27.7216" x="0" y="0"/>
  <path d="M25.6088 2.6395L25.9135 3.78793C26.2299 5.0184 25.644 6.08481 24.3549 6.42465L11.5112 9.86997L25.1987 9.86997C26.5229 9.86997 27.3666 10.7137 27.3666 12.0145L27.3666 22.9481C27.3666 25.245 26.2065 26.4168 23.851 26.4168L4.58538 26.4168C2.24163 26.4168 1.05804 25.2567 1.05804 22.9481L1.05804 12.6825L0.179135 9.45981C-0.406803 7.24497 0.448666 5.80356 2.68695 5.19418L21.2963 0.190279C23.5463-0.407378 25.0346 0.401216 25.6088 2.6395ZM2.88617 16.6317L2.88617 22.8426C2.88617 23.9911 3.50726 24.5887 4.60882 24.5887L23.8159 24.5887C24.9174 24.5887 25.5502 23.9911 25.5502 22.8426L25.5502 16.6317ZM8.62835 11.6981L5.56976 11.8387L3.89398 14.9559L7.74945 14.9559L9.50726 11.6981ZM13.0815 11.6981L11.3354 14.9559L15.4721 14.9559L17.2299 11.6981ZM20.8041 11.6981L19.058 14.9559L22.9018 14.9559L24.6596 11.6981ZM4.21038 6.68247L3.33148 10.2801L7.06976 9.27231L7.91351 5.67465ZM11.3823 4.74887L10.5385 8.34653L14.5346 7.29184L15.3784 3.68247ZM21.6596 1.98325L18.8354 2.75668L17.9799 6.35434L21.7065 5.35825L22.5385 1.78403C22.2573 1.84262 21.9643 1.90122 21.6596 1.98325Z" fill="currentColor" fill-opacity="0.85"/>
 </g>
</svg>
